<svg xmlns="http://www.w3.org/2000/svg" fill="none" width="256" height="256"><defs><clipPath id="prefix__a"><rect x="11" y="26" width="235" height="205.159" rx="0"/></clipPath></defs><g clip-path="url(#prefix__a)"><path d="M53.462 56.13l18.215-29.4a1.441 1.441 0 011.218-.666L91.618 26a1.44 1.44 0 011.246.68c.254.422.243.94-.028 1.352L62.13 75.782c-.135.21-.205.452-.203.698l-.034 30.765c0 .736-.636 1.333-1.422 1.333H43.035c-.785 0-1.422-.597-1.422-1.333V76.067a1.27 1.27 0 00-.203-.698l-30.2-47.305a1.262 1.262 0 01-.027-1.353 1.44 1.44 0 011.246-.68h18.587c.497-.002.959.239 1.219.636L50.991 56.16c.259.413.734.665 1.245.658.512-.006.98-.27 1.226-.69zM117.72 91.116l-6.026 16.065c-.319.846-1.177 1.407-2.133 1.397H94.529c-1.56.003-2.642-1.455-2.099-2.826l31.621-78.355c.326-.822 1.164-1.367 2.1-1.365h16.758c.935-.002 1.773.543 2.099 1.365l31.282 78.355c.544 1.371-.54 2.829-2.099 2.826h-15.743c-.965.006-1.825-.57-2.133-1.429l-5.62-16.001c-.307-.858-1.167-1.435-2.133-1.429h-28.709c-.957-.01-1.814.551-2.133 1.397zm6.196-16.414c-.23.652.283 1.325 1.015 1.334h18.689c.732-.009 1.244-.682 1.015-1.334l-9.344-25.335c-.157-.398-.563-.662-1.016-.662-.452 0-.858.264-1.015.662l-9.344 25.335zM206.05 60.161h32.5c.96 0 1.742.72 1.76 1.62l.34 10.985c.019.924-.775 1.682-1.761 1.682h-33.043c-.972 0-1.76.74-1.76 1.651l.033 30.828c0 .912-.788 1.65-1.76 1.65h-16.86c-.972 0-1.76-.738-1.76-1.65l.236-79.244c0-.912.789-1.651 1.76-1.651h57.961c.947 0 1.725.7 1.76 1.587L246 40.192c.038.936-.761 1.715-1.76 1.714h-38.732c-.999 0-1.798.778-1.76 1.714l.542 14.954c.036.887.814 1.588 1.76 1.587zM99.37 223.19q-19.5 14.35-41.879 2.858c-23.19-11.938-20.008-45.306-6.805-62.83 17.436-23.145 72.451-28.003 74.144 9.492q.101 1.746-1.795 1.746h-15.37q-2.133 0-2.336-1.968c-1.05-8.731-8.091-12.255-16.995-11.588-21.702 1.587-31.554 21.303-27.153 40.638 4.808 20.89 35.752 16.7 40.966-1.683q.474-1.587-1.287-1.587H85.422q-1.997 0-1.625-1.81l2.065-10.382q.305-1.524 1.964-1.524l33.212.318c1.328.012 2.31 1.163 2.031 2.38l-9.107 40.195q-.372 1.65-2.167 1.746-2.945.127-5.687.031-3.284-.158-4.57-1.746-1.084-1.333-.678-3.429.44-2.285-1.49-.857zM207.708 153.63c18.485 13.143 12.357 46.638-.44 61.655-19.027 22.383-67.271 22.668-73.331-10.668-4.638-25.62 7.482-50.416 34.363-58.385q20.517-6.064 39.408 7.397zm-42.401 61.02c11.736 4.16 26.061-4.41 31.997-19.139 5.935-14.73 1.232-30.04-10.504-34.2-11.737-4.158-26.062 4.41-31.997 19.14-5.935 14.73-1.233 30.041 10.504 34.2z" fill="#79D4FE"/></g></svg>